# Goxel 0.15.1
v -6 0 1 1.000000 1.000000 1.000000
v -5 0 1 1.000000 1.000000 1.000000
v -5 1 1 1.000000 1.000000 1.000000
v -6 1 1 1.000000 1.000000 1.000000
v -5 0 0 1.000000 1.000000 1.000000
v -6 0 0 1.000000 1.000000 1.000000
v -6 1 0 1.000000 1.000000 1.000000
v -5 1 0 1.000000 1.000000 1.000000
v -4 0 1 1.000000 1.000000 1.000000
v -4 1 1 1.000000 1.000000 1.000000
v -4 0 0 1.000000 1.000000 1.000000
v -4 1 0 1.000000 1.000000 1.000000
v -3 0 1 1.000000 1.000000 1.000000
v -3 1 1 1.000000 1.000000 1.000000
v -3 0 0 1.000000 1.000000 1.000000
v -3 1 0 1.000000 1.000000 1.000000
v -5 2 1 1.000000 1.000000 1.000000
v -6 2 1 1.000000 1.000000 1.000000
v -6 2 0 1.000000 1.000000 1.000000
v -5 2 0 1.000000 1.000000 1.000000
v -5 3 1 1.000000 1.000000 1.000000
v -6 3 1 1.000000 1.000000 1.000000
v -6 3 0 1.000000 1.000000 1.000000
v -5 3 0 1.000000 1.000000 1.000000
v -5 4 1 1.000000 1.000000 1.000000
v -6 4 1 1.000000 1.000000 1.000000
v -6 4 0 1.000000 1.000000 1.000000
v -5 4 0 1.000000 1.000000 1.000000
v -5 5 1 1.000000 1.000000 1.000000
v -6 5 1 1.000000 1.000000 1.000000
v -6 5 0 1.000000 1.000000 1.000000
v -5 5 0 1.000000 1.000000 1.000000
vn 0 0 1
vn 0 0 -1
vn 0 -1 -0
vn -1 0 0
vn 0 1 0
vn 1 0 0
f 1//1 2//1 3//1 4//1
f 5//2 6//2 7//2 8//2
f 1//3 6//3 5//3 2//3
f 1//4 4//4 7//4 6//4
f 2//1 9//1 10//1 3//1
f 11//2 5//2 8//2 12//2
f 2//3 5//3 11//3 9//3
f 10//5 12//5 8//5 3//5
f 9//1 13//1 14//1 10//1
f 15//2 11//2 12//2 16//2
f 9//3 11//3 15//3 13//3
f 14//5 16//5 12//5 10//5
f 13//6 15//6 16//6 14//6
f 4//1 3//1 17//1 18//1
f 8//2 7//2 19//2 20//2
f 3//6 8//6 20//6 17//6
f 4//4 18//4 19//4 7//4
f 18//1 17//1 21//1 22//1
f 20//2 19//2 23//2 24//2
f 17//6 20//6 24//6 21//6
f 18//4 22//4 23//4 19//4
f 22//1 21//1 25//1 26//1
f 24//2 23//2 27//2 28//2
f 21//6 24//6 28//6 25//6
f 22//4 26//4 27//4 23//4
f 26//1 25//1 29//1 30//1
f 28//2 27//2 31//2 32//2
f 29//5 32//5 31//5 30//5
f 25//6 28//6 32//6 29//6
f 26//4 30//4 31//4 27//4
